<?xml version="1.0" standalone="no"?>
<!DOCTYPE svg PUBLIC "-//W3C//DTD SVG 20010904//EN"
 "http://www.w3.org/TR/2001/REC-SVG-20010904/DTD/svg10.dtd">
<svg version="1.0" xmlns="http://www.w3.org/2000/svg"
 width="3464.000000pt" height="3464.000000pt" viewBox="0 0 3464.000000 3464.000000"
 preserveAspectRatio="xMidYMid meet">

<g transform="translate(0.000000,3464.000000) scale(0.100000,-0.100000)"
fill="#000000" stroke="none">
<path d="M14095 24999 c-189 -6 -388 -21 -667 -49 -53 -5 -145 -20 -205 -34
-59 -13 -128 -27 -153 -31 -25 -3 -84 -20 -132 -36 -47 -16 -93 -29 -101 -29
-17 0 -211 -74 -242 -93 -11 -6 -47 -25 -80 -43 -282 -147 -438 -259 -654
-469 -105 -102 -200 -213 -278 -325 -88 -126 -263 -437 -263 -468 0 -9 -11
-35 -25 -58 -14 -24 -35 -80 -46 -126 -11 -45 -27 -95 -35 -111 -9 -15 -24
-72 -34 -125 -11 -53 -26 -131 -35 -172 -17 -77 -24 -136 -50 -399 -34 -338
-37 -564 -42 -2821 -5 -2496 5 -3879 31 -4095 9 -71 21 -184 27 -250 6 -66 22
-167 34 -225 13 -58 27 -123 30 -145 4 -22 16 -65 27 -95 11 -30 31 -91 43
-135 28 -96 80 -242 97 -270 7 -11 24 -42 39 -70 142 -266 287 -463 484 -660
227 -225 439 -368 785 -528 75 -35 341 -119 476 -151 60 -14 173 -33 249 -41
77 -9 180 -23 230 -32 83 -16 341 -18 3145 -23 1680 -3 3208 -2 3395 2 308 7
414 14 685 49 194 24 450 80 540 118 25 11 72 28 105 39 69 23 181 67 210 84
11 7 74 42 140 78 128 70 229 137 310 204 235 193 437 407 535 566 18 30 44
66 56 80 37 42 157 275 207 405 90 231 149 460 173 670 8 72 24 200 37 285
l22 155 3 3055 c3 3098 -1 3561 -33 3758 -8 51 -20 146 -25 210 -6 64 -17 146
-25 182 -8 36 -26 115 -39 175 -12 61 -32 133 -44 160 -12 28 -28 77 -36 110
-9 33 -27 82 -41 109 -14 27 -25 57 -25 66 0 8 -16 40 -35 70 -19 30 -35 58
-35 63 0 8 -13 32 -104 182 -52 87 -117 184 -127 191 -5 3 -21 23 -34 44 -65
103 -414 430 -514 482 -20 10 -58 37 -86 58 -27 22 -68 49 -90 60 -22 11 -60
33 -85 50 -25 16 -51 30 -58 30 -8 0 -42 16 -76 35 -35 19 -69 35 -76 35 -7 0
-47 16 -90 35 -43 19 -87 35 -99 35 -11 0 -58 13 -104 29 -45 15 -113 33 -152
40 -38 7 -101 21 -140 31 -40 11 -151 26 -260 35 -104 8 -215 20 -245 25 -30
6 -221 15 -425 20 -438 10 -5666 10 -5970 -1z m6163 -1291 c5 -7 13 -35 17
-63 4 -27 16 -76 27 -108 11 -31 30 -101 43 -155 12 -53 34 -135 47 -182 51
-174 71 -246 80 -295 11 -58 57 -229 98 -365 16 -52 38 -136 49 -186 11 -50
27 -108 35 -129 9 -20 21 -66 26 -100 5 -34 19 -82 29 -106 11 -24 25 -75 31
-114 6 -38 25 -109 40 -156 16 -47 32 -112 36 -145 4 -32 17 -86 29 -119 13
-33 28 -87 35 -120 6 -33 24 -98 40 -145 16 -47 31 -110 35 -140 4 -30 16 -77
27 -104 10 -27 25 -80 33 -118 8 -37 22 -85 30 -105 9 -21 25 -78 36 -128 11
-49 28 -119 39 -155 10 -36 28 -101 39 -145 22 -89 45 -180 69 -267 19 -71 7
-120 -46 -201 -42 -63 -66 -102 -104 -170 -15 -27 -33 -56 -41 -65 -8 -10 -33
-52 -56 -96 -23 -43 -53 -93 -66 -111 -14 -17 -25 -36 -25 -40 0 -5 -16 -34
-36 -64 -113 -177 -174 -294 -174 -336 0 -21 11 -46 30 -70 17 -21 40 -57 50
-79 23 -46 50 -92 90 -151 15 -22 32 -56 39 -75 6 -19 20 -44 31 -55 22 -23
90 -133 90 -144 0 -4 12 -23 26 -42 14 -19 35 -54 46 -79 10 -25 28 -54 38
-65 11 -11 26 -36 34 -55 8 -19 26 -50 40 -69 43 -58 43 -69 -3 -281 -5 -25
-19 -72 -30 -105 -31 -94 -120 -415 -151 -550 -10 -44 -27 -100 -38 -125 -11
-25 -25 -76 -31 -115 -6 -38 -21 -101 -35 -140 -13 -38 -29 -99 -36 -134 -6
-35 -23 -88 -37 -119 -14 -31 -29 -86 -34 -124 -5 -37 -15 -81 -23 -96 -17
-33 -41 -126 -51 -195 -3 -27 -18 -78 -31 -114 -14 -36 -30 -88 -36 -117 -6
-28 -17 -64 -25 -79 -8 -16 -21 -67 -29 -115 -8 -48 -36 -148 -61 -222 -44
-129 -86 -283 -140 -510 -13 -57 -35 -130 -48 -161 -13 -31 -29 -87 -35 -123
-6 -37 -19 -84 -30 -104 -11 -20 -20 -52 -20 -70 0 -18 -9 -51 -20 -72 -18
-36 -24 -40 -58 -40 -41 0 -60 18 -97 90 -10 19 -33 52 -51 73 -19 20 -34 47
-34 60 -1 40 -24 78 -64 105 -34 23 -41 35 -53 86 -11 50 -22 69 -71 120 -32
35 -73 92 -92 131 -19 39 -38 72 -41 75 -4 3 -9 21 -11 39 -2 26 -10 39 -33
51 -33 18 -75 74 -75 100 0 9 -9 25 -21 36 -26 24 -73 92 -104 153 -13 26 -31
54 -41 61 -30 26 -61 84 -73 138 -10 50 -34 99 -56 114 -5 4 -20 8 -31 8 -25
0 -47 -43 -44 -87 4 -57 1 -67 -15 -53 -11 9 -15 33 -15 84 0 96 -37 263 -67
299 -13 16 -23 33 -23 38 0 5 -11 9 -25 9 -26 0 -26 -1 -20 -57 7 -63 -6 -113
-29 -113 -20 0 -114 110 -121 142 -4 15 -14 30 -23 33 -9 3 -26 26 -37 51 -11
25 -30 55 -42 66 -13 12 -23 30 -23 40 0 10 -4 18 -10 18 -5 0 -10 11 -10 25
0 20 -5 25 -25 25 -14 0 -25 5 -25 10 0 6 -6 10 -13 10 -7 0 -18 9 -25 20 -7
11 -18 20 -26 20 -7 0 -25 9 -40 21 -22 17 -26 28 -26 70 0 44 -2 49 -22 49
-15 0 -29 -11 -41 -32 -17 -29 -19 -30 -34 -15 -14 13 -14 21 -5 42 6 14 18
25 26 25 16 0 36 76 36 134 l0 33 -42 -10 c-54 -12 -59 -14 -80 -29 -15 -10
-22 -8 -48 17 -16 15 -33 43 -36 61 -4 21 -14 36 -26 40 -27 8 -48 63 -48 123
0 48 1 49 35 55 19 4 35 11 35 15 0 4 11 21 25 37 14 16 25 34 25 41 0 7 11
23 25 37 30 30 32 57 6 80 -19 18 -20 17 -35 -19 -9 -21 -16 -44 -16 -51 0 -8
-8 -14 -18 -14 -23 0 -75 -55 -92 -97 -7 -18 -15 -33 -19 -33 -16 0 -81 78
-92 110 -7 19 -21 45 -31 57 -15 16 -21 39 -23 88 -2 37 -6 70 -10 73 -3 3
-16 -7 -29 -23 -23 -29 -23 -29 -35 -8 -6 12 -11 37 -11 56 0 20 -7 40 -16 48
-9 7 -26 36 -39 64 -12 28 -34 60 -48 71 -31 25 -83 105 -98 153 -6 20 -19 45
-29 56 -10 11 -27 38 -39 60 -12 22 -45 74 -74 115 -29 41 -59 94 -65 116 -7
23 -19 45 -28 48 -18 7 -44 66 -44 99 0 14 9 31 22 39 19 13 21 19 12 48 -5
18 -14 35 -21 37 -11 4 -15 -5 -27 -59 -4 -18 -11 -25 -20 -22 -23 9 -68 84
-86 142 -11 36 -24 57 -40 65 -14 7 -29 27 -34 46 -10 36 -90 107 -132 117
-14 4 -46 4 -72 0 -26 -3 -722 -5 -1547 -5 -825 1 -1514 1 -1531 1 -17 0 -62
-13 -100 -29 -80 -33 -96 -61 -47 -87 16 -8 35 -26 42 -40 8 -14 22 -28 31
-31 10 -3 66 -58 126 -122 99 -104 191 -198 327 -331 26 -26 50 -55 53 -64 3
-10 10 -18 16 -18 9 0 207 -196 259 -257 9 -10 38 -39 65 -65 67 -64 89 -87
154 -159 19 -21 41 -44 48 -51 47 -45 61 -61 92 -102 19 -25 42 -48 50 -51 37
-13 240 -227 240 -255 0 -13 8 -20 27 -22 15 -2 32 -12 38 -23 5 -11 22 -32
38 -47 15 -15 27 -33 27 -41 0 -8 13 -17 28 -20 18 -4 42 -24 67 -57 22 -28
62 -72 88 -98 100 -97 129 -128 143 -154 7 -15 23 -29 34 -33 11 -4 27 -19 35
-34 11 -23 29 -33 97 -54 46 -14 113 -31 150 -37 37 -6 89 -21 114 -35 32 -17
63 -25 96 -25 67 0 137 -19 148 -40 7 -13 29 -18 107 -24 74 -5 110 -13 148
-31 28 -13 93 -32 145 -40 52 -9 110 -25 129 -36 23 -13 66 -24 123 -30 51 -5
105 -17 126 -28 21 -11 73 -27 116 -35 97 -20 146 -40 146 -60 0 -11 22 -15
114 -18 102 -3 118 -6 146 -27 24 -17 54 -26 114 -33 118 -14 151 -34 123 -72
-27 -36 -212 -23 -251 18 -24 26 -105 56 -150 56 -23 0 -38 -8 -58 -32 -21
-27 -29 -31 -39 -20 -7 6 -22 12 -34 12 -11 0 -27 4 -35 10 -12 7 -9 13 15 35
25 21 28 27 15 35 -8 5 -36 10 -61 10 -25 0 -87 3 -137 6 -90 7 -92 7 -92 -15
0 -32 19 -47 73 -55 78 -12 58 -30 -25 -22 -53 5 -75 11 -88 26 -12 14 -30 20
-59 20 -36 0 -41 3 -41 23 0 27 34 47 80 47 17 0 30 4 30 10 0 15 -30 27 -92
39 -32 5 -82 22 -111 36 -67 31 -174 35 -228 8 -23 -12 -61 -17 -119 -18 -48
-1 -99 -7 -117 -15 -26 -11 -34 -12 -47 -1 -23 19 -20 71 8 111 44 65 44 98 0
65 -28 -21 -104 -18 -178 6 -51 17 -77 20 -120 15 -31 -4 -56 -10 -56 -12 0
-3 7 -15 15 -28 14 -21 13 -24 -7 -44 -48 -44 -108 -33 -108 20 0 27 28 58 52
58 23 0 23 12 -2 35 -18 16 -22 17 -52 2 -36 -17 -60 -10 -78 23 -7 14 -8 26
0 39 14 28 -1 35 -85 41 l-70 5 3 42 c2 35 -2 45 -28 67 -17 13 -39 45 -49 69
-11 25 -32 57 -48 71 -40 39 -168 99 -193 91 -39 -12 -21 -38 51 -72 42 -19
49 -28 71 -84 18 -49 31 -67 58 -82 55 -31 93 -92 68 -109 -33 -21 -118 25
-118 64 0 9 -12 25 -27 35 -16 10 -36 28 -46 40 -25 31 -87 33 -87 3 0 -11 -4
-20 -10 -20 -5 0 -10 -11 -10 -25 0 -22 4 -25 33 -25 41 0 70 -20 65 -46 -3
-18 -15 -19 -263 -22 -143 -1 -270 0 -282 3 -13 3 -23 12 -23 20 0 8 -7 15
-15 15 -8 0 -15 7 -15 15 0 8 -9 15 -20 15 -11 0 -20 5 -20 10 0 6 16 10 35
10 34 0 35 1 35 38 0 53 -20 93 -45 90 -16 -2 -22 -14 -29 -55 -11 -62 -21
-65 -91 -31 -31 15 -48 30 -52 48 -19 78 -99 165 -158 172 -29 3 -30 2 -33
-46 l-3 -49 71 -65 c76 -69 103 -90 187 -144 29 -18 53 -36 53 -40 0 -14 -62
-40 -84 -34 -13 3 -43 31 -67 62 -54 69 -75 90 -115 115 -18 11 -39 35 -48 54
-9 19 -29 41 -44 49 -36 19 -85 72 -80 86 4 13 72 40 101 40 9 0 17 6 17 14 0
7 7 19 15 26 19 16 19 63 0 100 -12 23 -22 30 -45 30 -26 0 -33 -6 -46 -39
-16 -42 -40 -59 -58 -41 -18 18 -36 11 -36 -14 0 -13 7 -29 15 -36 19 -16 20
-50 1 -50 -7 0 -19 7 -26 15 -7 8 -17 15 -22 15 -21 0 -69 44 -87 79 -11 20
-59 70 -107 111 -116 99 -141 125 -148 155 -7 27 -82 107 -118 126 -50 27
-140 105 -159 139 -11 20 -43 51 -70 70 -28 19 -65 55 -84 80 -19 25 -46 52
-60 60 -30 16 -119 125 -129 158 -4 12 -19 27 -33 34 -14 7 -35 25 -46 40
l-20 27 22 18 c26 21 20 53 -10 53 -14 0 -19 -7 -19 -30 0 -16 -5 -30 -10 -30
-22 0 -59 32 -69 60 -5 17 -24 36 -45 47 -41 21 -303 266 -310 291 -4 10 -18
25 -33 34 -24 14 -101 90 -440 433 -81 82 -269 252 -292 264 -48 25 -63 43
-56 70 8 31 2691 2713 2738 2738 29 14 85 15 567 11 419 -5 543 -3 566 7 23
10 41 33 78 106 52 102 103 190 148 256 15 23 28 44 28 48 0 6 104 196 208
383 24 42 55 97 68 121 31 56 47 68 114 82 30 6 75 20 99 30 25 11 79 26 121
33 42 7 112 25 155 39 44 14 109 33 145 41 36 9 121 31 190 50 69 18 163 43
210 55 47 12 121 32 165 46 44 13 107 29 140 36 33 6 82 20 109 31 28 11 84
26 125 35 42 8 97 24 122 34 25 9 75 23 110 29 35 6 98 22 139 35 41 14 107
31 145 39 39 8 95 24 125 34 31 11 89 25 129 32 41 7 90 19 109 27 19 8 74 23
121 33 48 11 107 28 132 39 25 11 79 25 120 32 40 6 101 21 134 34 33 12 92
27 130 34 39 6 104 22 145 35 41 13 102 30 135 38 66 16 179 48 295 83 85 26
163 31 178 13z m-1633 -7423 c0 -37 -28 -46 -45 -15 -16 29 -5 52 22 48 18 -2
23 -9 23 -33z m70 -101 c18 -45 19 -41 -3 -46 -32 -9 -55 45 -30 70 16 16 16
17 33 -24z m67 -73 c36 -14 68 -46 68 -69 0 -12 6 -25 13 -29 19 -12 44 -71
51 -123 4 -25 20 -66 36 -90 17 -25 30 -55 30 -67 0 -33 39 -30 65 4 38 47 64
-5 28 -57 -24 -35 -33 -40 -75 -40 -35 0 -38 2 -38 28 0 19 -11 38 -31 58 -42
40 -69 95 -69 144 0 52 -31 114 -69 136 -32 19 -51 52 -51 89 0 27 7 30 42 16z
m-2537 -156 c14 -13 25 -34 25 -47 0 -34 11 -44 54 -51 63 -10 76 -29 76 -114
0 -58 -3 -73 -15 -73 -8 0 -15 9 -15 20 0 11 5 20 10 20 6 0 10 7 10 15 0 20
-46 30 -76 16 -14 -6 -26 -11 -28 -11 -2 0 -27 33 -56 72 -66 90 -93 147 -78
165 17 21 67 15 93 -12z m299 -61 c9 -23 7 -54 -3 -54 -27 0 -41 15 -41 41 0
22 5 29 19 29 10 0 22 -7 25 -16z m420 -20 c13 -34 -66 -86 -149 -99 -39 -5
-130 6 -142 19 -14 14 21 34 69 39 56 7 151 37 156 50 7 14 60 7 66 -9z m1307
-124 c29 -6 60 -16 67 -24 11 -11 6 -16 -30 -31 -24 -9 -49 -22 -56 -27 -21
-18 15 -48 55 -48 34 0 34 -1 28 -32 -4 -18 -14 -41 -23 -50 -16 -19 -67 -24
-77 -8 -3 6 -15 10 -26 10 -14 0 -19 7 -19 28 0 16 -14 54 -31 86 -33 61 -32
81 3 96 31 12 46 12 109 0z m-1710 -56 c17 -20 16 -88 -1 -109 -7 -8 -23 -15
-36 -15 -28 0 -40 33 -30 82 11 55 40 74 67 42z m2018 -20 c19 -8 38 -20 42
-26 4 -7 37 -13 73 -14 35 -1 71 -6 78 -10 7 -5 46 -11 86 -14 l74 -5 -30 -41
c-39 -54 -75 -64 -111 -31 -18 17 -42 26 -82 31 -31 3 -75 13 -99 21 -24 8
-75 18 -114 21 -131 10 -136 11 -136 44 0 17 7 34 18 40 22 14 154 4 201 -16z
m568 -140 c4 -12 -39 -34 -67 -34 -14 0 -20 -7 -20 -22 0 -12 -8 -30 -17 -41
-17 -18 -16 -20 23 -55 47 -41 57 -62 48 -98 -10 -38 -37 -47 -81 -28 -21 10
-64 18 -97 18 -53 1 -60 4 -83 32 -21 28 -22 33 -9 47 8 8 40 18 70 21 69 9
86 26 63 66 -10 15 -14 35 -11 43 6 17 58 32 74 22 6 -4 20 5 32 20 21 27 67
32 75 9z m-2677 -39 c0 -14 -4 -25 -9 -25 -12 0 -19 21 -13 38 8 21 22 13 22
-13z m2122 -6 c29 -6 71 -19 93 -29 22 -10 48 -21 58 -24 36 -12 14 -39 -45
-57 -32 -9 -71 -28 -87 -41 -26 -23 -34 -24 -90 -17 -106 12 -118 48 -16 49
77 0 95 8 95 40 0 36 -12 40 -121 40 -77 0 -90 -3 -95 -17 -13 -42 -22 -48
-78 -53 -55 -5 -75 -18 -76 -47 0 -18 -39 -16 -46 2 -8 20 89 115 117 115 12
0 33 8 47 19 15 10 34 21 42 24 26 10 147 7 202 -4z m-1797 -249 c3 -5 -3 -10
-15 -10 -12 0 -18 5 -15 10 3 6 10 10 15 10 5 0 12 -4 15 -10z m1445 -86 c0
-9 -5 -14 -12 -12 -18 6 -21 28 -4 28 9 0 16 -7 16 -16z m803 -521 c-13 -2
-33 -2 -45 0 -13 2 -3 4 22 4 25 0 35 -2 23 -4z"/>
<path d="M18754 22310 c-16 -11 -62 -24 -101 -30 -40 -5 -93 -18 -120 -29 -27
-10 -100 -29 -163 -41 -63 -12 -130 -29 -148 -36 -18 -7 -68 -20 -111 -28 -43
-8 -101 -24 -129 -35 -28 -11 -86 -27 -129 -34 -43 -8 -118 -26 -168 -40 -98
-27 -163 -45 -295 -77 -47 -12 -116 -30 -155 -41 -38 -11 -113 -29 -165 -39
-52 -10 -122 -28 -154 -39 -32 -12 -89 -26 -125 -32 -36 -6 -88 -20 -116 -30
-27 -10 -144 -41 -260 -69 -115 -28 -239 -59 -275 -70 -36 -11 -86 -26 -112
-33 -56 -14 -133 -89 -758 -728 -531 -542 -909 -926 -1152 -1169 -208 -207
-221 -226 -180 -264 18 -15 133 -16 1578 -15 857 1 1587 3 1621 4 74 4 118 30
140 83 8 19 29 56 46 82 18 26 41 63 52 81 11 19 31 52 44 74 13 22 37 65 53
95 17 30 36 62 43 70 7 8 26 39 41 68 60 111 73 134 89 158 17 26 48 82 97
174 17 30 35 61 41 69 11 13 33 53 94 176 14 28 33 58 42 68 19 23 63 96 92
157 12 25 33 59 45 76 13 17 24 34 24 38 0 4 16 32 35 62 19 30 35 56 35 58 0
2 23 43 52 92 28 49 65 114 81 144 16 30 35 62 42 70 7 8 22 35 34 60 12 25
42 79 66 120 25 41 50 86 57 100 7 14 24 43 38 65 79 119 110 169 110 176 0 4
23 47 52 96 54 92 74 128 146 263 34 65 40 84 32 100 -14 26 -65 26 -106 0z"/>
<path d="M19654 21819 c-11 -6 -35 -38 -52 -72 -18 -34 -48 -89 -67 -122 -19
-33 -42 -76 -51 -95 -22 -47 -84 -150 -105 -175 -10 -11 -27 -41 -37 -66 -11
-26 -25 -50 -31 -54 -6 -3 -23 -30 -38 -58 -14 -29 -36 -65 -48 -82 -13 -16
-44 -68 -70 -115 -60 -106 -111 -196 -160 -280 -21 -36 -49 -85 -62 -110 -14
-25 -30 -51 -36 -58 -5 -7 -21 -34 -34 -60 -13 -26 -31 -60 -40 -77 -68 -120
-101 -173 -122 -198 -14 -16 -46 -71 -72 -122 -26 -52 -72 -136 -103 -188 -31
-51 -56 -99 -56 -105 0 -6 -11 -24 -25 -40 -14 -17 -32 -46 -40 -65 -8 -19
-25 -48 -38 -63 -13 -16 -33 -49 -44 -74 -11 -25 -40 -75 -64 -111 -43 -65
-78 -124 -131 -222 -15 -28 -36 -60 -47 -71 -27 -31 -40 -60 -50 -113 -8 -41
-6 -56 15 -106 14 -33 41 -82 60 -109 19 -28 34 -56 34 -63 0 -7 10 -25 23
-40 23 -29 57 -85 101 -166 13 -25 31 -51 40 -58 8 -7 22 -37 31 -66 8 -30 21
-58 29 -62 7 -4 35 -48 61 -98 26 -49 55 -99 65 -110 11 -11 30 -45 43 -76 14
-30 32 -61 42 -69 9 -7 23 -29 31 -49 8 -20 23 -45 33 -56 10 -11 22 -31 26
-45 4 -14 20 -43 35 -65 42 -62 107 -177 115 -204 9 -29 61 -118 86 -146 10
-11 27 -40 38 -65 12 -25 31 -61 43 -80 11 -19 39 -66 61 -105 23 -38 51 -82
63 -97 12 -15 28 -44 34 -65 16 -48 76 -157 96 -174 8 -6 24 -34 35 -60 12
-26 29 -55 40 -64 10 -10 24 -34 30 -54 7 -20 24 -54 39 -76 60 -89 80 -122
100 -165 26 -57 70 -133 91 -157 9 -10 26 -44 38 -75 27 -67 46 -87 92 -94 49
-8 68 17 83 113 7 43 18 89 25 103 14 30 57 181 77 268 7 34 29 108 48 165 19
56 37 129 41 162 4 33 18 86 31 119 13 32 26 75 29 95 6 34 15 66 81 296 14
50 36 133 48 185 12 52 32 118 44 145 12 28 26 81 32 118 6 37 21 97 35 132
13 35 27 85 31 112 3 26 19 80 35 120 15 39 31 95 34 125 4 29 22 103 40 163
57 189 76 257 92 335 19 97 12 226 -16 300 -12 30 -31 91 -42 135 -11 44 -27
98 -35 119 -8 21 -24 84 -35 139 -11 55 -29 117 -40 139 -11 21 -26 73 -33
116 -8 43 -23 99 -34 124 -12 25 -30 86 -41 136 -11 50 -25 100 -31 111 -5 11
-19 58 -30 105 -11 46 -27 101 -35 121 -9 19 -23 73 -31 118 -9 45 -20 87 -25
93 -5 6 -22 60 -38 120 -16 60 -34 122 -41 139 -6 16 -18 61 -26 100 -8 38
-25 104 -38 145 -38 117 -66 218 -86 306 -22 99 -27 118 -51 170 -10 23 -23
72 -29 109 -12 77 -22 100 -50 115 -23 12 -38 12 -66 -1z"/>
<path d="M17580 18455 c-14 -16 -5 -35 16 -35 15 0 20 35 5 44 -5 3 -14 -1
-21 -9z"/>
<path d="M13190 18266 c-7 -10 -10 -26 -6 -42 5 -19 12 -25 29 -22 18 2 22 9
22 38 0 39 -23 52 -45 26z"/>
<path d="M13976 18174 c-3 -9 -6 -25 -6 -36 0 -16 5 -19 23 -14 12 3 28 6 35
6 15 0 16 32 0 48 -17 17 -45 15 -52 -4z"/>
<path d="M17900 17953 c-16 -37 -19 -53 -11 -70 15 -33 26 -29 60 23 37 54 37
58 9 78 -32 23 -35 21 -58 -31z"/>
<path d="M13934 17959 c-7 -11 12 -29 31 -29 19 0 38 18 31 29 -4 6 -18 11
-31 11 -13 0 -27 -5 -31 -11z"/>
<path d="M13200 17897 c0 -20 6 -26 31 -29 27 -4 30 -2 27 21 -2 20 -9 27 -30
29 -24 3 -28 0 -28 -21z"/>
<path d="M13701 17756 c-20 -24 -9 -69 21 -85 24 -14 28 -14 47 3 23 21 27 47
11 77 -13 23 -62 26 -79 5z"/>
<path d="M13567 17623 c-12 -11 -8 -20 19 -52 14 -17 35 -31 46 -31 17 0 19 4
14 28 -10 42 -59 76 -79 55z"/>
<path d="M18252 17361 c-20 -12 -10 -45 14 -49 29 -4 51 23 34 43 -14 17 -29
19 -48 6z"/>
<path d="M14224 17236 c-10 -25 1 -79 17 -89 9 -5 28 -7 42 -3 24 6 27 11 27
46 0 34 -4 42 -26 50 -35 14 -54 12 -60 -4z"/>
<path d="M14041 17142 c-20 -15 -22 -22 -12 -40 6 -11 31 -35 56 -53 25 -18
45 -36 45 -41 0 -15 83 -68 107 -68 12 0 23 2 23 4 0 6 -66 122 -83 146 -40
57 -101 81 -136 52z"/>
<path d="M15040 17150 c0 -6 7 -22 16 -36 18 -27 14 -37 -28 -58 -28 -14 -34
-38 -18 -77 17 -40 61 -40 101 0 38 38 40 88 4 121 -14 13 -25 29 -25 36 0 6
-7 15 -16 18 -23 9 -34 7 -34 -4z"/>
<path d="M15166 16907 c-27 -20 -14 -70 17 -65 18 2 22 10 22 37 0 39 -12 47
-39 28z"/>
<path d="M14878 16871 c-49 -26 -68 -42 -68 -56 0 -25 57 -65 93 -65 22 0 31
9 52 51 28 54 30 103 5 105 -8 1 -45 -15 -82 -35z"/>
<path d="M15350 16864 c0 -9 5 -14 12 -12 18 6 21 28 4 28 -9 0 -16 -7 -16
-16z"/>
<path d="M18350 16834 c-12 -13 -12 -20 1 -42 8 -15 23 -28 32 -30 16 -3 18 3
15 40 -3 47 -24 61 -48 32z"/>
<path d="M18546 16835 c-11 -29 -7 -75 7 -75 7 0 23 7 35 16 33 23 27 68 -9
72 -17 2 -29 -3 -33 -13z"/>
<path d="M14764 16695 c-10 -24 5 -65 32 -92 48 -48 78 -10 55 69 -11 35 -15
38 -47 38 -22 0 -37 -6 -40 -15z"/>
<path d="M18730 16495 c0 -60 3 -75 15 -75 8 0 15 -7 15 -15 0 -8 7 -15 15
-15 8 0 15 -5 15 -11 0 -14 26 -39 40 -39 6 0 24 -7 40 -15 27 -14 44 -36 69
-92 6 -13 19 -23 31 -23 26 0 38 46 19 75 -41 64 -78 104 -111 120 -23 11 -38
25 -38 36 0 10 -7 24 -15 33 -8 8 -15 23 -15 33 0 26 -36 63 -60 63 -18 0 -20
-7 -20 -75z"/>
<path d="M16560 16089 l-25 -10 29 -26 c27 -23 34 -24 90 -18 66 8 82 16 73
38 -9 25 -119 35 -167 16z"/>
</g>
</svg>
